<?xml version="1.0" encoding="UTF-8"?><svg id="Layer_2" xmlns="http://www.w3.org/2000/svg" viewBox="0 0 298.38 84.01"><defs><style>.cls-1{fill:#231f20;}</style></defs><g id="Layer_1-2"><g><path class="cls-1" d="M81.67,45.96c0-3.09-1.61-5.56-5.07-5.56h-3.34c-6.45,0-11.46,3.79-14.72,9.12-1.59,1.46-4.33,3.79-8.88,4.35,.12-1.73,.25-3.58,.25-5.44,0-6.55-2.47-10.38-5.56-10.38-4.57,0-6.42,3.71-6.42,7.78,0,3.09,1.24,6.67,3.83,8.9,.25,2.47,.37,5.19,.37,7.78,0,8.77-1.48,16.93-6.3,16.93-4.2,0-5.68-3.21-5.68-16.56,0-6.42,.37-16.31,.37-16.31,0-4.94-3.71-6.3-7.04-6.3-2.22,0-2.72,.62-2.72,1.85,0,.99,.25,2.35,.25,4.08,0,3.95-.12,33.23-6.18,33.23-3.58,0-4.45-5.81-4.45-12.6s.86-14.46,.86-18.29c0-6.05-1.24-8.28-6.79-8.28-3.58,0-4.32,.86-4.32,1.61,0,2.1,1.61,1.98,1.61,5.31,0,7.78-1.73,12.23-1.73,21.13,0,9.76,4.2,15.57,12.73,15.57,3.83,0,7.41-3.58,9.39-10.38,1.36,6.42,5.68,10.38,12.48,10.38,7.54,0,13.47-8.15,14.95-27.06,2.37-.27,4.59-1.01,6.45-1.89-4.39,12.52-.95,28.58,13.07,28.58,9.64,0,12.11-8.15,12.48-11.61,.25-1.73-3.46-1.11-3.83,1.24-.49,2.84-2.47,6.42-6.42,6.42-5.07,0-6.92-6.18-7.29-11.37,9.51-4.45,17.67-12.97,17.67-22.24Zm-17.67,18.04c.62-9.51,5.19-19.77,13.22-19.77,.86,0,.86,2.22,.86,3.95,0,5.31-6.92,12.11-14.08,15.81Z"/><path class="cls-1" d="M294.42,73.14c-.49,2.84-2.47,6.42-6.42,6.42-5.07,0-6.92-6.18-7.29-11.37,9.51-4.45,17.67-12.97,17.67-22.24,0-3.09-1.61-5.56-5.07-5.56h-3.34c-13.73,0-20.95,17.19-18.63,29.86-1.23,3.51-3.45,8.68-5.83,8.68-1.98,0-2.47-.86-2.47-23.97,0-8.15,.12-16.8,.74-24.71,11-1.48,20.14-7.66,20.14-19.27,0-7.04-4.57-11-10.25-11-11,0-16.68,9.02-19.27,25.57-3.47-.45-7.15-1.27-10.99-2.24,1.76-4.24,2.46-8.29,2.46-12.34,0-6.92-4.2-11-11.12-11-9.79,0-14.87,6.17-17.51,17-3.75-.62-7.58-1.04-11.47-1.15,2.54-.78,4.2-2.13,4.99-3.33,.85-1.28,.57-2.54-.71-3.39-2.65-1.76-5.44,.38-8.99,5.23-.41-4.19-2.29-6.8-3.89-7.85-1.28-.85-2.54-.57-3.39,.71-1.78,2.69,.45,5.52,5.43,9.14-4.21,.41-6.83,2.29-7.89,3.89-.85,1.28-.57,2.54,.71,3.39,2.66,1.76,5.45-.39,9.01-5.25,.47,4.02,2.3,6.53,3.85,7.56,1.28,.85,2.54,.57,3.39-.71,1.62-2.45-.08-5.01-4.16-8.19,4.51,.09,8.78,.58,12.79,1.32-2.58,11.82-2.55,28.77-2.55,49.09,0,.88,0,1.71,.02,2.5-1.2,3.55-3.49,8.99-5.95,8.99-4.08,0-1.36-19.64-1.36-30.39,0-6.05-1.24-8.28-6.8-8.28-2.35,0-3.34,.86-3.34,1.61,0,2.1,.62,1.98,.62,5.31v.62c-1.73,20.88-8.9,29.4-12.11,29.4-6.42,0-5.44-32.99,9.27-32.99,1.73,0,2.22-3.83-.62-3.83h-3.34c-11.98,0-19.03,13.22-19.03,25.08,0,1.51,.09,3,.26,4.45-1.2,3.51-3.49,9.02-5.95,9.02-1.98,0-2.47-.86-2.47-23.97v-7.91c16.8-14.58,21.75-25.33,21.75-36.08,0-6.92-4.2-11-11.12-11-16.31,0-20.76,19.27-21.13,53.62-2.47,16.68-8.53,23.6-11.49,23.6-6.42,0-5.44-32.99,9.39-32.99,1.61,0,2.22-3.83-.62-3.83h-3.34c-11.98,0-19.03,13.22-19.03,25.08,0,1.52,.09,3.02,.26,4.47-1.2,3.51-3.49,9-5.94,9-1.98,0-2.47-.86-2.47-23.97v-7.91c16.8-14.58,21.75-25.33,21.75-36.08,0-6.92-4.2-11-11.12-11-16.31,0-20.76,19.27-21.13,53.62-2.47,16.68-8.53,23.6-11.49,23.6-6.42,0-5.44-32.99,9.39-32.99,1.61,0,2.22-3.83-.62-3.83h-3.34c-11.98,0-19.03,13.22-19.03,25.08,0,9.39,2.84,18.04,13.84,18.04,3.71,0,7.29-3.71,11.24-17.17,.12,9.39,1.24,17.67,9.39,17.67,4.97,0,8.57-4.06,10.91-8.31,1.85,4.61,5.51,7.81,12.19,7.81,3.71,0,7.29-3.71,11.24-17.17,.12,9.39,1.24,17.67,9.39,17.67,4.99,0,8.59-4.09,10.93-8.34,1.87,4.63,5.55,7.85,12.17,7.85,3.46,0,6.79-3.21,10.38-14.33-.12,1.48-.12,3.09-.12,4.7,0,6.79,4.2,10.01,9.51,10.01,4.1,0,7.28-3.1,9.56-6.71,.87,5.2,3,6.71,7.74,6.71,2.35,0,3.58-1.61,3.58-3.21,0-.62-.25-1.24-.74-1.73-.99-.99-1.24-2.96-1.24-6.79v-3.58c2.35-11.98,7.04-21.25,10.01-21.25,2.22,0,4.32,6.42,4.32,13.47,0,8.77-2.72,18.66-6.05,18.66-3.09,0-3.71-3.58-3.95-6.18-.12-.74-.62-1.11-1.24-1.11-.99,0-2.22,.86-2.22,2.22,0,5.56,3.58,9.64,12.23,9.64s11.61-10.75,11.61-20.63c0-8.03-1.11-22.73-11.49-22.73-5.93,0-10.75,8.52-13.22,16.68v-10.38c8.94-7.75,14.5-14.43,17.75-20.62,4.59,1.86,8.51,3.47,11.78,4.18-.87,8.03-1.24,17.54-1.24,28.42,0,11.98-.74,25.08,9.39,25.08,5.07,0,8.71-4.23,11.05-8.56,2.27,4.77,6.44,8.07,12.8,8.07,9.64,0,12.11-8.15,12.48-11.61,.25-1.73-3.46-1.11-3.83,1.24Zm-.49-28.91c.86,0,.86,2.22,.86,3.95,0,5.31-6.92,12.11-14.08,15.81,.62-9.51,5.19-19.77,13.22-19.77Zm-19.03-39.54c3.83,0,4.94,3.71,4.94,7.54,0,8.65-7.04,12.85-15.69,13.59,1.36-12.11,4.32-21.13,10.75-21.13Zm-65.2,5.45c.84,.56,.69,1.28,.15,2.1-1.24,1.87-3.96,3.05-6.9,3.37,2.43-3.47,5.06-6.59,6.75-5.47Zm-14.91-2.59c.56-.84,1.28-.69,2.1-.15,1.87,1.24,3.05,3.96,3.37,6.9-3.47-2.43-6.59-5.06-5.47-6.75Zm-2.42,15.06c-.84-.56-.69-1.28-.15-2.1,1.24-1.87,3.96-3.05,6.9-3.37-2.43,3.47-5.06,6.59-6.75,5.47Zm14.89,2.27c-.56,.84-1.28,.69-2.1,.15-1.87-1.24-3.05-3.96-3.37-6.9,3.47,2.43,6.59,5.06,5.47,6.75Zm-31.82-20.19c4.57,0,5.81,3.09,5.81,7.54,0,10.13-7.29,21.37-17.54,29.9,.49-19.15,2.59-37.44,11.74-37.44Zm-43.74,0c4.57,0,5.81,3.09,5.81,7.54,0,10.13-7.29,21.37-17.54,29.9,.49-19.15,2.59-37.44,11.74-37.44Zm104.28,0c4.57,0,5.81,3.09,5.81,7.54,0,3.3-.78,6.71-2.18,10.11-4.28-1.14-8.75-2.39-13.37-3.49,1.8-9.4,4.88-14.16,9.74-14.16Zm-11.74,37.31c.22-8.66,.75-15.82,1.7-21.48,4.56,1.33,8.72,2.88,12.49,4.38-3.09,6.15-8.11,12.13-14.19,17.11Z"/></g></g></svg>